<?xml version="1.0" encoding="utf-8"?>
<!-- Generator: Adobe Illustrator 27.7.0, SVG Export Plug-In . SVG Version: 6.00 Build 0)  -->
<svg version="1.1" id="레이어_1" xmlns="http://www.w3.org/2000/svg" xmlns:xlink="http://www.w3.org/1999/xlink" x="0px"
	 y="0px" viewBox="0 0 271.3 271.3" style="enable-background:new 0 0 271.3 271.3;" xml:space="preserve">
<style type="text/css">
	.st0{clip-path:url(#SVGID_00000135673261204301350170000010461496049718495110_);}
	.st1{clip-path:url(#SVGID_00000010273257100438452400000013249697987357796488_);}
</style>
<path d="M-833.2-185.7L-833.2-185.7c-23.5-33.7-62.1-37.2-88.6-7.8l-24.2,26.8l-24.2-26.8c-26.5-29.3-65.2-25.9-88.6,7.8l0,0
	c-16.4,23.5-15.7,60.6,1.6,83l111.3,144.2l111.3-144.2C-817.5-125-816.8-162.1-833.2-185.7z"/>
<g>
	<g>
		
			<image style="overflow:visible;" width="512" height="502" xlink:href="8A27856B2AAAE87C.png"  transform="matrix(0.4883 0 0 0.4883 305.6345 -268.9526)">
		</image>
	</g>
</g>
<g>
	<defs>
		<rect id="SVGID_1_" x="-636.4" y="-0.4" width="272" height="272"/>
	</defs>
	<clipPath id="SVGID_00000145033281004876072720000005735565135509419186_">
		<use xlink:href="#SVGID_1_"  style="overflow:visible;"/>
	</clipPath>
	<g style="clip-path:url(#SVGID_00000145033281004876072720000005735565135509419186_);">
		
			<image style="overflow:visible;" width="512" height="502" xlink:href="8A27856B2AAAE87D.png"  transform="matrix(0.4883 0 0 0.4883 -625.3655 13.0759)">
		</image>
	</g>
</g>
<g>
	<defs>
		<rect id="SVGID_00000139981048300036917480000005640465359933404841_" x="-0.4" y="-0.4" width="272" height="272"/>
	</defs>
	<clipPath id="SVGID_00000101810721727127363230000012969331910883383433_">
		<use xlink:href="#SVGID_00000139981048300036917480000005640465359933404841_"  style="overflow:visible;"/>
	</clipPath>
	<g style="clip-path:url(#SVGID_00000101810721727127363230000012969331910883383433_);">
		<g>
			
				<image style="overflow:visible;" width="512" height="502" xlink:href="8A27856B2AAAE87B.png"  transform="matrix(0.4883 0 0 0.4883 10.6345 13.0474)">
			</image>
		</g>
	</g>
</g>
</svg>
