<svg width="56" height="55" viewBox="0 0 56 55" fill="none" xmlns="http://www.w3.org/2000/svg">
<path d="M18.5122 10.5032C18.4954 8.98669 18.7361 7.31857 19.4941 5.93663C20.659 3.81112 22.9067 2.28241 25.1088 2.03537C26.779 1.84948 28.3698 2.40226 29.7031 3.55185C30.9088 4.59137 31.9148 6.78047 32.1939 8.46327C32.745 11.7897 32.7571 15.2311 32.2324 18.5649C32.1939 18.8144 32.4779 18.9538 32.6079 18.7484C34.3358 15.9992 38.8194 11.7237 41.7386 10.9752C45.8949 9.91125 50.9849 10.6352 53.0209 15.3852C55.016 20.0374 52.4842 23.8408 50.9825 25.6019C49.7623 27.0352 47.2016 29.2072 44.203 29.9263C40.9228 30.7114 37.4717 30.2296 36.0181 29.733C35.3827 29.5154 34.5163 27.9084 36.8387 28.1334C37.9795 28.2435 39.5606 28.9406 41.1514 29.8431C44.8793 31.9588 47.4134 36.1291 47.9092 39.0007C48.3641 41.6325 47.6685 45.1375 46.2053 46.7029C44.1043 48.9482 41.2067 49.3983 38.8795 49.0779C37.1107 48.8333 33.9484 47.5883 32.1795 45.4188C30.4106 43.2492 28.5022 37.7043 28.9714 36.7137C29.7007 35.1899 30.3601 42.2635 28.6586 45.974C27.2531 49.0387 24.6058 51.6926 21.6336 52.4753C18.5628 53.2849 14.575 52.3065 12.0914 50.1101C10.1011 48.349 9.19378 45.3821 9.10955 42.5277C9.03254 39.9497 9.57884 37.2787 10.9915 35.2535C12.1299 33.6221 13.8819 32.4847 15.6941 32.3477C16.0623 32.3208 16.1682 32.903 15.824 33.0522C12.1371 34.6445 7.61504 33.6294 4.83538 30.4326C1.77415 26.9129 1.08826 21.0304 3.28551 16.7647C5.48276 12.499 10.3177 10.5888 14.575 11.6894C18.8468 12.7926 20.9911 17.5915 21.097 19.9273C21.1499 21.094 19.8431 19.3036 19.3137 17.6991C18.8516 16.3 18.5411 13.179 18.5122 10.5056V10.5032Z" stroke="#F4F0ED" stroke-width="3" stroke-miterlimit="10"/>
</svg>
