<?xml version="1.0" encoding="UTF-8"?>
<svg id="_레이어_2" data-name="레이어 2" xmlns="http://www.w3.org/2000/svg" xmlns:xlink="http://www.w3.org/1999/xlink" viewBox="0 0 18.75 18.75">
  <defs>
    <style>
      .cls-1, .cls-2 {
        fill: none;
      }

      .cls-3 {
        fill: #692121;
      }

      .cls-2 {
        clip-path: url(#clippath);
      }
    </style>
    <clipPath id="clippath">
      <rect class="cls-1" width="18.75" height="18.75"/>
    </clipPath>
  </defs>
  <g id="_레이어_1-2" data-name="레이어 1">
    <g class="cls-2">
      <path class="cls-3" d="m8.5,10.64h-.93v-1.56h.93v1.56Zm-1.25-2.18c-.17,0-.31.14-.31.31v2.18c0,.17.14.31.31.31h1.56c.17,0,.31-.14.31-.31v-2.18c0-.17-.14-.31-.31-.31h-1.56Z"/>
      <path class="cls-3" d="m11.62,10.64h-.93v-3.43h.93v3.43Zm-1.25-4.05c-.17,0-.31.14-.31.31v4.05c0,.17.14.31.31.31h1.56c.17,0,.31-.14.31-.31v-4.05c0-.17-.14-.31-.31-.31h-1.56Z"/>
      <path class="cls-3" d="m14.74,10.64h-.93v-4.67h.93v4.67Zm-1.25-5.3c-.17,0-.31.14-.31.31v5.3c0,.17.14.31.31.31h1.56c.17,0,.31-.14.31-.31v-5.3c0-.17-.14-.31-.31-.31h-1.56Z"/>
      <path class="cls-3" d="m17.85,10.64h-.93v-6.54h.93v6.54Zm.31-7.17h-1.56c-.17,0-.31.14-.31.31v7.17c0,.17.14.31.31.31h1.56c.17,0,.31-.14.31-.31V3.78c0-.17-.14-.31-.31-.31Z"/>
      <path class="cls-3" d="m14.45,3.05l-.2-.18c-.12-.11-.32-.11-.44.02l-.05.05s-.09.1-.14.14c-.26.26-.55.51-.85.74-.59.44-1.25.79-1.94,1.03-.49.18-1,.29-1.52.36.48-.18.94-.41,1.36-.68.58-.37,1.09-.82,1.52-1.34.21-.25.41-.52.58-.8.03-.04.05-.09.08-.13.02-.02.03-.05.04-.07,0,0,0,0,0-.01l.07-.13c.07-.12.04-.28-.07-.38l-.17-.16,2.19-.69-.48,2.24ZM15.57.12c-.08-.07-.2-.1-.3-.07l-3.22,1.02c-.11.04-.19.12-.21.23-.02.11.01.22.09.3l.39.35s-.04.07-.06.11c-.16.25-.33.5-.52.72-.39.47-.86.88-1.38,1.22-.53.34-1.12.61-1.75.78-.63.18-1.3.26-1.97.24-.16,0-.3.11-.32.27-.02.16.08.3.23.35.62.16,1.26.25,1.9.25.11,0,.21,0,.32,0,.77-.03,1.53-.18,2.27-.44.75-.26,1.46-.64,2.1-1.12.32-.24.62-.5.9-.78l.37.34c.08.07.2.1.3.07.11-.04.19-.12.21-.23l.72-3.3c.02-.11-.02-.23-.1-.3Z"/>
      <path class="cls-3" d="m17.73,13.34l-5.34,4.36c-1.51.55-2.5.55-4.02-.02,0,0,0,0-.02,0l-3.75-1.19s-.06-.02-.09-.02h-1.29v-3.54h1.29s.09,0,.12-.03l.58-.26c1.19-.53,2.54-.39,3.63.37.22.32.56.51.93.51h3c.28,0,.51.26.52.57,0,.18-.06.34-.17.45-.05.05-.12.1-.19.12-.09.02-.18.02-.27.02h-3.34c-.17,0-.31.14-.31.31s.14.31.31.31h3.48c.09,0,.19-.01.28-.04.39-.07.76-.24,1.08-.5l2.86-2.31h0c.2-.18.48-.16.66.04.19.23.21.6.03.84Zm-15.14-.72v4.66h-.51c.25-.17.42-.45.42-.78,0-.51-.42-.93-.93-.93s-.93.42-.93.93c0,.32.17.61.42.78h-.42v-5.14h1.96v.48Zm-1.03,4.2c-.17,0-.31-.14-.31-.31s.14-.31.31-.31.31.14.31.31-.14.31-.31.31Zm15.07-4.83l-2.7,2.19v-.08c-.01-.65-.52-1.18-1.14-1.18h-3c-.17,0-.34-.1-.44-.27-.02-.04-.05-.07-.09-.09-1.27-.92-2.88-1.1-4.3-.47l-.52.23h-1.23v-.48c0-.17-.14-.31-.31-.31H.31c-.17,0-.31.14-.31.31v5.77c0,.17.14.31.31.31h2.59c.17,0,.31-.14.31-.31v-.49h1.25l3.7,1.17c.84.31,1.54.46,2.24.46s1.41-.16,2.25-.47c.03-.01.06-.03.09-.05l5.41-4.42s.03-.03.05-.05c.39-.48.37-1.21-.05-1.67-.41-.46-1.07-.5-1.53-.11Z"/>
    </g>
  </g>
</svg>