<?xml version="1.0" encoding="utf-8"?>
<!-- Generator: Adobe Illustrator 27.7.0, SVG Export Plug-In . SVG Version: 6.00 Build 0)  -->
<svg version="1.1" id="_레이어_2" xmlns="http://www.w3.org/2000/svg" xmlns:xlink="http://www.w3.org/1999/xlink" x="0px"
	 y="0px" viewBox="0 0 19.5 17.2" style="enable-background:new 0 0 19.5 17.2;" xml:space="preserve">
<style type="text/css">
	.st0{clip-path:url(#SVGID_00000078036642753771797160000003075464491912968326_);}
	.st1{fill:#F4F0ED;}
</style>
<g id="_레이어_1-2">
	<g>
		<defs>
			<rect id="SVGID_1_" y="0" width="19.5" height="17.2"/>
		</defs>
		<clipPath id="SVGID_00000178167498447521573110000010423982075464617888_">
			<use xlink:href="#SVGID_1_"  style="overflow:visible;"/>
		</clipPath>
		<g style="clip-path:url(#SVGID_00000178167498447521573110000010423982075464617888_);">
			<path class="st1" d="M7.9,3.4h0.5c0.6,0,1.2,0.3,1.6,0.7C9.2,4.7,8.5,5.5,8.3,6.5H5.8V5.5C5.8,4.4,6.8,3.4,7.9,3.4L7.9,3.4z
				 M8.1,0.6c0.6,0,1.1,0.5,1.1,1.1S8.7,2.8,8.1,2.8S7.1,2.3,7.1,1.7S7.5,0.6,8.1,0.6z M9.7,2.3C9.8,2.7,9.9,3,10,3.2
				C9.8,3.1,9.6,3,9.4,2.9C9.5,2.7,9.7,2.5,9.7,2.3z M12,4.3c1.8,0,3.2,1.5,3.2,3.2v1H8.8v-1C8.8,5.8,10.2,4.3,12,4.3z M11.9,0.6
				c0.8,0,1.5,0.7,1.5,1.5s-0.7,1.5-1.5,1.5S10.4,3,10.4,2.2S11.1,0.6,11.9,0.6z M14,2.2c0.1,0.3,0.2,0.6,0.5,0.8
				c-0.5,0.2-0.9,0.5-1.2,0.9c0,0-0.1,0-0.1,0C13.7,3.5,14,2.9,14,2.2z M15.7,0.6c0.6,0,1.1,0.5,1.1,1.1s-0.5,1.1-1.1,1.1
				s-1.1-0.5-1.1-1.1S15.1,0.6,15.7,0.6z M18.2,5.5v0.9h-2.4c-0.3-1-0.9-1.8-1.8-2.3c0.4-0.5,1-0.7,1.6-0.7H16
				C17.2,3.4,18.1,4.4,18.2,5.5L18.2,5.5z M5.2,5.5v1.2c0,0.2,0.2,0.3,0.3,0.3h2.6c0,0.2,0,0.3,0,0.4v1.3c0,0.2,0.1,0.3,0.3,0.3h7.1
				c0.2,0,0.3-0.1,0.3-0.3V7.6c0-0.2,0-0.3,0-0.4h2.6c0.2,0,0.3-0.2,0.3-0.3V5.5c0-1.2-0.8-2.2-1.9-2.6c0.3-0.3,0.5-0.7,0.5-1.2
				c0-0.9-0.8-1.7-1.7-1.7S14,0.7,14,1.7C13.7,0.7,12.9,0,11.9,0c-1,0-1.8,0.6-2.1,1.5C9.7,0.7,9,0,8.1,0C7.2,0,6.4,0.8,6.4,1.7
				C6.4,2.2,6.6,2.7,7,3C5.9,3.4,5.2,4.4,5.2,5.5L5.2,5.5z"/>
			<path class="st1" d="M4.7,10.9c0,0,0.1,0,0.1,0l0.6-0.3c1.2-0.6,2.6-0.4,3.8,0.4c0.2,0.3,0.6,0.5,1,0.5h3.1
				c0.3,0,0.5,0.3,0.5,0.6c0,0.2-0.1,0.4-0.2,0.5c-0.1,0.1-0.1,0.1-0.2,0.1c-0.1,0-0.2,0-0.3,0H9.7c-0.2,0-0.3,0.1-0.3,0.3
				s0.1,0.3,0.3,0.3h3.6c0.1,0,0.2,0,0.3,0c0.4-0.1,0.8-0.2,1.1-0.5l3-2.4l0,0c0.2-0.2,0.5-0.2,0.7,0.1c0.2,0.2,0.2,0.6,0,0.9
				l-5.6,4.5c-1.6,0.6-2.6,0.6-4.2,0c0,0,0,0,0,0l-3.9-1.2c0,0-0.1,0-0.1,0H3.3v-3.7L4.7,10.9L4.7,10.9z M2.7,10.5v4.8H2.2
				c0.3-0.2,0.4-0.5,0.4-0.8c0-0.5-0.4-1-1-1s-1,0.4-1,1c0,0.3,0.2,0.6,0.4,0.8H0.7V10h2C2.7,10,2.7,10.5,2.7,10.5z M1.6,14.9
				c-0.2,0-0.3-0.1-0.3-0.3s0.1-0.3,0.3-0.3s0.3,0.1,0.3,0.3S1.8,14.9,1.6,14.9z M3,9.4H0.3C0.2,9.4,0,9.5,0,9.7v6
				C0,15.9,0.2,16,0.3,16H3c0.2,0,0.3-0.1,0.3-0.3v-0.5h1.3l3.8,1.2c0.9,0.3,1.6,0.5,2.3,0.5s1.5-0.2,2.3-0.5c0,0,0.1,0,0.1,0
				l5.6-4.6c0,0,0,0,0-0.1c0.4-0.5,0.4-1.3,0-1.7c-0.4-0.5-1.1-0.5-1.6-0.1l-2.8,2.3v-0.1c0-0.7-0.5-1.2-1.2-1.2h-3.1
				c-0.2,0-0.4-0.1-0.4-0.3c0,0-0.1-0.1-0.1-0.1c-1.3-1-3-1.1-4.5-0.5l-0.5,0.2H3.3V9.7C3.3,9.5,3.2,9.4,3,9.4z"/>
		</g>
	</g>
</g>
</svg>
