<?xml version="1.0" encoding="utf-8"?>
<!-- Generator: Adobe Illustrator 27.7.0, SVG Export Plug-In . SVG Version: 6.00 Build 0)  -->
<svg version="1.1" id="_레이어_2" xmlns="http://www.w3.org/2000/svg" xmlns:xlink="http://www.w3.org/1999/xlink" x="0px"
	 y="0px" viewBox="0 0 13.5 20.2" style="enable-background:new 0 0 13.5 20.2;" xml:space="preserve">
<style type="text/css">
	.st0{clip-path:url(#SVGID_00000138547134546444268650000011859402749944636342_);}
	.st1{fill:#F4F0ED;}
</style>
<g id="_레이어_1-2">
	<g>
		<defs>
			<rect id="SVGID_1_" y="0" width="13.5" height="20.2"/>
		</defs>
		<clipPath id="SVGID_00000082343434879747875900000002901548970944420761_">
			<use xlink:href="#SVGID_1_"  style="overflow:visible;"/>
		</clipPath>
		<g style="clip-path:url(#SVGID_00000082343434879747875900000002901548970944420761_);">
			<path class="st1" d="M12.4,12c-0.6,0.1-1.1,0.2-1.6,0.4c-0.5,0.2-1,0.5-1.4,0.9c-0.4,0.4-0.8,0.8-1.1,1.2c-0.3,0.5-0.6,1-0.8,1.5
				c0.6,0.2,1.2,0.2,1.9,0s1.2-0.4,1.7-0.8c0.5-0.4,0.8-0.9,1.1-1.4C12.3,13.2,12.4,12.6,12.4,12L12.4,12z M6.7,17.3L6.7,17.3
				c-1.4,0-2.7,0.8-3.2,1.9h6.4C9.4,18,8.1,17.3,6.7,17.3L6.7,17.3z M5.9,16c-0.2-0.5-0.4-1-0.8-1.5S4.4,13.7,4,13.3
				s-0.9-0.6-1.4-0.9C2.1,12.2,1.5,12.1,1,12c0,0.6,0.1,1.2,0.3,1.8s0.6,1.1,1.1,1.4C2.8,15.6,3.4,15.9,4,16
				C4.7,16.2,5.3,16.2,5.9,16L5.9,16L5.9,16z M3.8,7.7C4,7.9,4.2,8.1,4.5,8.3s0.6,0.3,0.8,0.4c0.3,0.1,0.6,0.2,0.9,0.2s0.6,0,0.9,0
				c0.3,0,0.6-0.1,0.9-0.2c0.3-0.1,0.6-0.2,0.8-0.4C9.2,8,9.4,7.8,9.6,7.6c0.2-0.2,0.4-0.5,0.6-0.8s0.3-0.6,0.4-0.9s0.1-0.6,0.2-0.9
				s0-0.6-0.1-0.9s-0.1-0.6-0.3-0.9S10.1,2.7,10,2.4C9.8,2.2,9.6,1.9,9.3,1.7C9.1,1.5,8.9,1.4,8.6,1.2C8.3,1.1,8,0.9,7.7,0.9
				C7.4,0.8,7.1,0.7,6.8,0.7s-0.6,0-0.9,0.1S5.2,1,5,1.1S4.4,1.4,4.2,1.6S3.7,2,3.5,2.2S3.1,2.7,3,3C2.8,3.3,2.7,3.6,2.7,3.9
				C2.6,4.2,2.5,4.5,2.5,4.8C2.5,6,3,6.9,3.8,7.7L3.8,7.7z M11.5,15.8c-0.9,0.8-1.9,1.1-3.1,1.1c0.6,0.2,1.1,0.6,1.5,1
				c0.4,0.5,0.7,1,0.9,1.6l0.1,0.5H2.4l0.1-0.5c0.2-0.6,0.5-1.1,0.9-1.6c0.4-0.5,0.9-0.8,1.5-1c-1.2,0-2.2-0.4-3.1-1.1
				c-0.6-0.5-1-1.2-1.3-1.9s-0.3-1.5-0.2-2.3c0.1-0.2,0.2-0.3,0.4-0.3c0.6,0,1.2,0.1,1.7,0.3C2.9,11.8,3.5,12,4,12.4
				s0.9,0.7,1.3,1.2C5.7,14,6,14.5,6.3,15V9.6c0,0,0,0,0,0c-0.2,0-0.4-0.1-0.6-0.1S5.3,9.4,5.1,9.3C4.9,9.2,4.7,9.2,4.5,9.1
				S4.1,8.9,4,8.8C3.8,8.6,3.6,8.5,3.5,8.4C3.3,8.3,3.2,8.1,3.1,8C2.9,7.8,2.8,7.6,2.7,7.5C2.6,7.3,2.5,7.1,2.4,6.9
				C2.3,6.8,2.2,6.6,2.1,6.4S2,6,2,5.8c0-0.2-0.1-0.4-0.1-0.6s0-0.4,0-0.6c0-0.2,0-0.4,0.1-0.6S2,3.6,2.1,3.4C2.1,3.2,2.2,3,2.3,2.8
				c0.1-0.2,0.2-0.4,0.3-0.5s0.2-0.3,0.3-0.5s0.3-0.3,0.4-0.5c0.2-0.1,0.3-0.3,0.5-0.4C4,0.8,4.1,0.7,4.3,0.6s0.4-0.2,0.6-0.3
				C5,0.3,5.2,0.2,5.4,0.2S5.8,0.1,6,0c0.2,0,0.4,0,0.6,0c0.2,0,0.4,0,0.6,0c0.2,0,0.4,0.1,0.6,0.1c0.2,0,0.4,0.1,0.6,0.2
				C8.6,0.4,8.8,0.5,9,0.6S9.3,0.8,9.5,1S9.8,1.2,10,1.4s0.3,0.3,0.4,0.5s0.2,0.3,0.4,0.5c0.1,0.2,0.2,0.3,0.3,0.5s0.1,0.4,0.2,0.6
				c0.1,0.2,0.1,0.4,0.1,0.6c0,0.2,0.1,0.4,0.1,0.6c0,0.2,0,0.4,0,0.6c0,0.2-0.1,0.4-0.1,0.6s-0.1,0.4-0.2,0.6
				C11.1,6.6,11,6.8,10.9,7s-0.2,0.4-0.3,0.5c-0.1,0.2-0.2,0.3-0.4,0.5S9.9,8.3,9.8,8.4C9.6,8.5,9.4,8.7,9.3,8.8S8.9,9,8.7,9.1
				S8.4,9.3,8.2,9.3C8,9.4,7.8,9.4,7.6,9.5C7.4,9.5,7.2,9.5,7,9.6c0,0,0,0,0,0v5.6c0.2-0.6,0.6-1.1,1-1.5c0.4-0.5,0.8-0.9,1.3-1.2
				s1-0.6,1.6-0.8s1.2-0.3,1.8-0.4c0.2,0,0.3,0.1,0.4,0.3c0.1,0.8,0,1.6-0.2,2.3C12.5,14.6,12.1,15.2,11.5,15.8L11.5,15.8L11.5,15.8
				z M6.7,7.1c-0.1,0-0.2,0-0.3-0.1S6.3,6.8,6.3,6.7V6.5C6.2,6.5,6.1,6.5,6,6.4C5.9,6.4,5.8,6.3,5.7,6.2C5.5,6,5.4,5.8,5.4,5.5
				c0-0.1,0.1-0.2,0.1-0.2c0.1-0.1,0.2-0.1,0.2-0.1S6,5.2,6,5.2c0.1,0.1,0.1,0.1,0.1,0.2c0,0.1,0,0.2,0.1,0.2s0.1,0.1,0.2,0.1h0.4
				c0.1,0,0.2,0,0.2-0.1s0.1-0.1,0.1-0.2c0-0.1,0-0.1-0.1-0.2c0,0,0,0,0,0C7,5.2,6.9,5.2,6.9,5.2H6.5c-0.2,0-0.3,0-0.5-0.1
				C5.9,5,5.8,5,5.7,4.9l0,0C5.5,4.7,5.4,4.4,5.4,4.1c0-0.2,0.1-0.5,0.2-0.7C5.8,3.3,6,3.2,6.3,3.1V2.9c0-0.1,0-0.2,0.1-0.3
				s0.2-0.1,0.3-0.1s0.2,0,0.3,0.1S7,2.8,7,2.9v0.2c0.2,0,0.4,0.1,0.5,0.3c0,0,0,0,0,0C7.8,3.6,7.9,3.8,7.9,4c0,0.1,0,0.1,0,0.2
				c0,0.1,0,0.2-0.1,0.3C7.7,4.5,7.7,4.6,7.5,4.6s-0.2,0-0.3-0.1S7.2,4.3,7.2,4.2c0,0,0-0.1,0-0.1c0-0.1,0-0.1-0.1-0.1
				C7,3.9,6.9,3.8,6.9,3.8H6.5c-0.1,0-0.2,0-0.2,0.1c0,0,0,0,0,0.1c0,0-0.1,0.1-0.1,0.2c0,0.1,0,0.2,0.1,0.2
				c0.1,0.1,0.1,0.1,0.2,0.1h0.4c0.2,0,0.4,0.1,0.6,0.2c0.1,0,0.1,0.1,0.1,0.1l0,0c0.1,0.1,0.2,0.3,0.2,0.5c0,0.1,0,0.2,0,0.2
				c0,0.2-0.1,0.4-0.2,0.6c0,0.1-0.1,0.1-0.1,0.2C7.4,6.4,7.2,6.5,7,6.5v0.2C7,6.8,7,6.9,6.9,7C6.8,7.1,6.8,7.1,6.7,7.1L6.7,7.1z"/>
		</g>
	</g>
</g>
</svg>
