<?xml version="1.0" encoding="utf-8"?>
<!-- Generator: Adobe Illustrator 27.7.0, SVG Export Plug-In . SVG Version: 6.00 Build 0)  -->
<svg version="1.1" id="_레이어_2" xmlns="http://www.w3.org/2000/svg" xmlns:xlink="http://www.w3.org/1999/xlink" x="0px"
	 y="0px" viewBox="0 0 16.5 19.5" style="enable-background:new 0 0 16.5 19.5;" xml:space="preserve">
<style type="text/css">
	.st0{clip-path:url(#SVGID_00000042708333638493283120000014507403116228248210_);}
	.st1{fill:#F4F0ED;}
</style>
<g id="_레이어_1-2">
	<g>
		<defs>
			<rect id="SVGID_1_" y="0" width="16.5" height="19.5"/>
		</defs>
		<clipPath id="SVGID_00000106829696862478240570000008845475882476286353_">
			<use xlink:href="#SVGID_1_"  style="overflow:visible;"/>
		</clipPath>
		<g style="clip-path:url(#SVGID_00000106829696862478240570000008845475882476286353_);">
			<path class="st1" d="M6.6,7.3C6.5,7.3,6.5,7.2,6.5,7s0-0.2,0.1-0.3c0.1-0.1,0.2-0.1,0.3-0.1c0.1,0,0.2,0.1,0.3,0.1
				c0.2,0.2,0.4,0.4,0.5,0.6l1.1-1.1C9.1,6,9.3,5.7,9.5,5.5c0.1-0.1,0.2-0.2,0.3-0.2s0.2,0,0.3,0.1c0.1,0.1,0.1,0.2,0.1,0.3
				s-0.1,0.2-0.1,0.3c-0.7,0.7-1.4,1.3-2,2C8,8.3,7.9,8.3,7.7,8.3S7.5,8.2,7.4,8.2C7.1,7.9,6.9,7.6,6.6,7.3L6.6,7.3z M8.4,3.7
				c0.4,0,0.8,0.1,1.2,0.2c0.4,0.2,0.7,0.4,1,0.7c0.3,0.3,0.5,0.6,0.7,1s0.2,0.8,0.2,1.2c0,0.4-0.1,0.8-0.2,1.2
				c-0.2,0.4-0.4,0.7-0.7,1c-0.3,0.3-0.6,0.5-1,0.7S8.7,10,8.3,10S7.5,9.9,7.1,9.7S6.4,9.3,6.1,9S5.6,8.4,5.5,8
				C5.3,7.6,5.2,7.2,5.2,6.8c0-0.4,0.1-0.8,0.2-1.2c0.2-0.4,0.4-0.7,0.7-1c0.3-0.3,0.6-0.5,1-0.7C7.5,3.8,7.9,3.8,8.4,3.7L8.4,3.7z
				 M8.3,10.7c0.5,0,1-0.1,1.5-0.3c0.5-0.2,0.9-0.5,1.3-0.8c0.4-0.4,0.6-0.8,0.9-1.2c0.2-0.5,0.3-1,0.3-1.5s-0.1-1-0.3-1.5
				c-0.2-0.5-0.5-0.9-0.8-1.3s-0.8-0.6-1.2-0.8C9.4,3.1,8.9,3,8.4,3c-0.5,0-1,0.1-1.5,0.3C6.4,3.5,6,3.7,5.6,4.1
				C5.3,4.5,5,4.9,4.8,5.4c-0.2,0.5-0.3,1-0.3,1.5s0.1,1,0.3,1.5C5,8.8,5.2,9.2,5.6,9.6s0.8,0.6,1.2,0.8C7.3,10.6,7.8,10.7,8.3,10.7
				L8.3,10.7z M15.5,16.1c-0.8,0-1.6,0-2.4,0c-0.2,0-0.3,0.1-0.4,0.2c-0.4,0.6-0.7,1.3-1.1,1.9c0,0-0.1,0.1-0.1,0.1l-2.5-4.3
				c-0.1-0.2-0.3-0.3-0.6-0.3c-0.3,0-0.5,0.1-0.7,0.3c-1.2,2.1-1.7,3-1.9,3.2c0,0.1-0.2,0.4-0.5,0.9c0,0,0,0.1-0.1,0.1
				C5,18,4.8,17.6,4.6,17.2c-0.2-0.3-0.3-0.5-0.5-0.8c-0.1-0.2-0.2-0.2-0.4-0.2c-0.8,0-1.6,0-2.4,0H1.1c0,0,0-0.1,0.1-0.1
				c0.9-1.5,1.7-3,2.5-4.5c0-0.1,0.1-0.1,0.2-0.1c0.3,0.1,0.6,0.1,0.9,0.2c0.1,0,0.1,0.1,0.2,0.1c0.3,0.5,0.5,1,0.8,1.4
				c0,0.1,0.1,0.2,0.2,0.3c0.1,0.1,0.2,0.1,0.3,0.2c0.1,0,0.2,0.1,0.3,0c0.1,0,0.2,0,0.3-0.1c0.2-0.1,0.5-0.2,0.7-0.3
				C7.7,13,7.9,13,8.1,12.9c0.1,0,0.1-0.1,0.2-0.1c0.1,0,0.1,0,0.1,0c0.5,0.2,0.9,0.4,1.4,0.7c0.2,0.1,0.4,0.1,0.6,0.1
				s0.4-0.2,0.5-0.4c0.2-0.5,0.5-0.9,0.8-1.4c0-0.1,0.1-0.1,0.2-0.1c0.3-0.1,0.6-0.1,0.9-0.2c0.1,0,0.1,0,0.2,0.1
				c0.8,1.3,1.5,2.7,2.3,4c0.1,0.2,0.2,0.4,0.3,0.5L15.5,16.1L15.5,16.1z M2.2,6.9C2.2,6.9,2.1,6.9,2.2,6.9c-0.1-0.1,0-0.2,0-0.2
				c0.4-0.4,0.7-0.8,1.1-1.2c0.2-0.2,0.3-0.4,0.2-0.7c-0.1-0.5-0.1-1-0.2-1.6c0-0.1,0-0.2,0.1-0.2C4,3,4.5,2.9,5,2.8
				c0.3,0,0.5-0.2,0.6-0.4C5.9,1.9,6.1,1.4,6.4,1c0-0.1,0.1-0.1,0.1-0.1c0.1,0,0.2,0.1,0.3,0.1c0.4,0.2,0.9,0.4,1.3,0.6
				c0.2,0.1,0.5,0.1,0.7,0c0.5-0.2,1.1-0.5,1.6-0.7c0.2,0.4,0.4,0.7,0.6,1.1c0.1,0.2,0.2,0.3,0.3,0.5c0.1,0.2,0.3,0.4,0.6,0.4
				c0.6,0.1,1.1,0.2,1.7,0.3c0,0,0,0,0.1,0c0,0.2,0,0.3-0.1,0.5c-0.1,0.4-0.1,0.9-0.2,1.3c0,0.2,0,0.4,0.2,0.6
				c0.4,0.4,0.8,0.8,1.1,1.2c0,0,0.1,0.1,0.1,0.1l-0.9,0.9c-0.1,0.1-0.2,0.3-0.4,0.4c-0.2,0.2-0.3,0.4-0.2,0.7
				c0.1,0.5,0.1,1.1,0.2,1.6c0,0.1,0,0.1,0,0.1c-0.3,0-0.5,0.1-0.8,0.1c-0.3,0.1-0.6,0.1-1,0.2c-0.3,0-0.4,0.2-0.6,0.4
				c-0.3,0.5-0.5,0.9-0.8,1.4c0,0,0,0.1-0.1,0.1c0,0-0.1,0-0.1,0c-0.5-0.2-1-0.5-1.5-0.7C8.5,12,8.2,12,8,12.1
				c-0.5,0.2-1,0.5-1.5,0.7c0,0-0.1,0-0.1,0.1c-0.2-0.3-0.3-0.6-0.5-0.9c-0.1-0.2-0.2-0.4-0.4-0.7c-0.1-0.2-0.3-0.4-0.6-0.4
				c-0.6-0.1-1.1-0.2-1.7-0.3c0,0-0.1,0-0.1,0c0-0.2,0.1-0.5,0.1-0.7c0-0.4,0.1-0.7,0.2-1.1c0-0.2,0-0.5-0.2-0.6
				C2.9,7.7,2.5,7.3,2.2,6.9z M16.6,16.3c-0.5-0.9-1.1-1.8-1.6-2.8c-0.4-0.7-0.8-1.4-1.2-2.2c0.2-0.1,0.3-0.2,0.4-0.4
				s0.1-0.3,0.1-0.5c-0.1-0.5-0.1-1.1-0.2-1.6c0-0.1,0-0.1,0.1-0.2c0.4-0.4,0.7-0.8,1.1-1.2c0.2-0.2,0.2-0.3,0.2-0.6
				s-0.1-0.4-0.2-0.6c-0.4-0.4-0.7-0.8-1.1-1.2C14.1,5.1,14,5,14,4.9c0.1-0.5,0.1-1.1,0.2-1.6c0-0.2,0-0.4-0.1-0.6
				c-0.1-0.2-0.3-0.3-0.5-0.3c-0.5-0.1-1.1-0.2-1.6-0.3c-0.1,0-0.1,0-0.2-0.1c-0.3-0.5-0.5-1-0.8-1.5c-0.1-0.1-0.2-0.2-0.3-0.3
				c-0.1-0.1-0.3-0.1-0.4-0.1c-0.1,0-0.3,0-0.4,0.1C9.4,0.4,9,0.6,8.5,0.8c-0.1,0-0.1,0-0.2,0c-0.5-0.2-1-0.5-1.5-0.7
				C6.8,0.1,6.7,0,6.6,0s-0.2,0-0.3,0S6.1,0.1,6,0.2S5.8,0.4,5.8,0.5C5.5,0.9,5.2,1.4,5,1.9C4.9,2,4.9,2,4.8,2
				C4.3,2.1,3.8,2.2,3.2,2.3C3,2.3,2.8,2.4,2.7,2.6S2.5,3,2.5,3.2c0.1,0.5,0.1,1.1,0.2,1.6c0,0.1,0,0.2-0.1,0.2
				C2.3,5.4,1.9,5.8,1.6,6.2C1.4,6.3,1.3,6.5,1.3,6.8s0.1,0.4,0.3,0.6c0.4,0.4,0.7,0.8,1.1,1.2c0.1,0.1,0.1,0.1,0.1,0.2
				c-0.1,0.5-0.2,1.1-0.2,1.6c0,0.2,0,0.3,0.1,0.5s0.2,0.3,0.3,0.4c0,0,0.1,0,0.1,0.1c0,0,0,0.1-0.1,0.1C2,13,1.1,14.6,0.1,16.3
				c-0.1,0.1-0.1,0.3,0,0.4s0.2,0.2,0.4,0.2c1,0,1.9,0,2.9,0c0.1,0,0.2,0,0.2,0.1c0.4,0.8,0.9,1.5,1.3,2.3c0.1,0.2,0.2,0.2,0.4,0.2
				c0.2,0,0.3-0.1,0.4-0.2c0.9-1.5,1.8-3,2.7-4.5c0,0,0.1-0.1,0.1-0.1c0,0.1,0.1,0.1,0.1,0.1c0.9,1.5,1.8,3,2.6,4.6
				c0.1,0.2,0.2,0.3,0.4,0.3c0.2,0,0.3-0.1,0.4-0.3c0.4-0.8,0.9-1.5,1.3-2.3c0-0.1,0.1-0.1,0.2-0.1c1,0,1.9,0,2.9,0
				C16.6,16.9,16.8,16.6,16.6,16.3L16.6,16.3z"/>
		</g>
	</g>
</g>
</svg>
